<svg version="1.1" id="Layer_1" xmlns="http://www.w3.org/2000/svg" x="0" y="0" viewBox="0 0 395 72" xml:space="preserve"><style>.st0{fill:#fff}</style><path class="st0" d="M140.2 38.6c-2.7 2.3-6.8 3.4-12.1 3.4-5.1 0-9.1-1.1-12.1-3.2-3-2.2-4.6-5.5-5-10h8.7c.3 2.2 1.2 3.8 2.6 4.8 1.4 1 3.4 1.5 6.1 1.5 2.6 0 4.4-.5 5.4-1.5s1.5-2.2 1.5-3.7c0-1.2-.4-2.2-1.1-3.1-.7-.9-2.2-1.5-4.4-1.8l-5.3-1c-4.3-.8-7.5-2.1-9.6-3.9-2.1-1.8-3.2-4.5-3.2-8 0-2.6.7-4.8 2-6.6 1.3-1.8 3.2-3.1 5.6-4.1 2.4-.9 5.2-1.4 8.3-1.4 3.5 0 6.3.5 8.5 1.5s3.9 2.3 5.1 4c1.2 1.7 1.9 3.7 2.2 5.9l-8.5 1.1c-.5-1.9-1.3-3.2-2.3-4.1-1.1-.9-2.8-1.3-5.2-1.3-2.5 0-4.4.4-5.4 1.3-1.1.9-1.6 2-1.6 3.3s.4 2.4 1.2 3.1c.8.7 2.3 1.3 4.3 1.7l5.5 1.1c4.4.9 7.7 2.2 9.7 4.1 2 1.9 3 4.5 3 8 .2 3.5-1.2 6.6-3.9 8.9zM158.3 8.7h-12.2V1h33.3v7.7h-12.3V41h-8.8V8.7zM190.1 1h10.4l14.2 40h-9.1l-3-8.8h-15l-3 8.8h-8.8l14.3-40zm10.4 24l-5.4-16.3-5.3 16.3h10.7zM223.4 8.7h-12.2V1h33.3v7.7h-12.3V41h-8.8V8.7zM248.5 1h8.8v15.4h15.6V1h8.8v40h-8.8V24.3h-15.6V41h-8.8V1zM287.3 1H315v7.1h-19V17h17.9v7.1H296v9.7h20.2l-.9 7.1h-28V1zM332.4 1h10.4L357 41h-9.1l-3-8.8h-15l-3 8.8h-8.8l14.3-40zm10.4 24l-5.4-16.3-5.3 16.3h10.7zM360.1 1h15.2c6.3 0 11.2 1.6 14.6 4.9s5.1 8.2 5.1 14.8-1.8 11.7-5.3 15.1c-3.6 3.4-8.6 5.2-15 5.2h-14.5V1h-.1zM375 33.6c3.8 0 6.5-1.1 8.3-3.3s2.7-5.3 2.7-9.4c0-4-.8-7.1-2.5-9.2s-4.3-3.2-7.9-3.2h-6.7v25.1h6.1z"/><g><path class="st0" d="M112.8 47.6H135v4.6h-15.5v5.6h14.6v4.6h-14.6v9.1h-6.7V47.6zM139 47.6h13.6c7.6 0 11.3 2 11.3 6.1 0 2.4-1.5 4.1-4.4 5.1 3.6 1 5.4 2.9 5.4 5.7 0 2.3-1 4-3 5.2s-4.9 1.8-8.7 1.8h-14.3l.1-23.9zm13.5 9.5c1.7 0 2.9-.2 3.7-.7.8-.4 1.2-1.1 1.2-2.1 0-.9-.4-1.6-1.2-2s-2.1-.6-3.9-.6h-7v5.4h7.2zm.2 10.2c2 0 3.5-.2 4.4-.7s1.3-1.3 1.3-2.4-.5-1.9-1.4-2.4-2.4-.8-4.3-.8h-7.4v6.3h7.4zM169 47.6h12.8c7.1 0 10.6 2.4 10.6 7.1 0 3.2-1.8 5.4-5.4 6.4l6.9 10.3h-4.4l-6.3-9.6h-10.4v9.6h-3.7V47.6h-.1zm12.4 11.3c4.7 0 7-1.4 7-4.2 0-1.5-.5-2.5-1.6-3.2s-2.8-1-5.3-1h-8.8v8.4h8.7zM197.4 47.6h21.8v2.9h-18v7.2h17.1v2.9h-17.1v7.9H220l-.7 2.9h-21.9V47.6zM225.1 47.6h20.7v2.9h-16.9V58H245v3h-16.1v10.5h-3.8V47.6z"/></g><g><path class="st0" d="M102.3 25.5v8.1l-.7.5c-.4.3-.9.5-1.5.5s-1.1-.2-1.5-.5l-8.2-5.8c-.4-.3-.8-.8-1-1.4-.2-.6-.2-1.2 0-1.7l3.3-9.5c.2-.5.5-.9 1-1.3.5-.3 1-.5 1.5-.5h1.9c-4-5.5-9.7-9.7-16.3-11.9l.6 1.7c.1.5.2 1.1 0 1.6-.2.6-.5 1-.9 1.3l-8.1 6c-.4.3-1 .5-1.6.5s-1.2-.2-1.6-.5l-8-6.1-.3-.3c5.2-1.9 11.2-3.6 18.5-4.8C86 .3 93.5-.3 102.4-.3l-.1 25.8zM79.4 42.1l3.8-11.5c.2-.5.2-1.1 0-1.6s-.5-1-.9-1.3l-10-7.6c-.4-.3-1-.5-1.6-.5s-1.1.2-1.6.5l-10 7.5c-.4.3-.8.8-.9 1.3-.2.5-.1 1.1 0 1.6L62 42c.2.5.5 1 .9 1.3.5.3 1 .5 1.6.5h12.4c.5 0 1.1-.2 1.6-.5.4-.2.7-.7.9-1.2zm16.9 8.3c-.2-.5-.5-1-.9-1.3-.5-.4-1-.5-1.5-.5l-10.1-.2c-.6 0-1.1.1-1.6.5-.5.3-.8.8-1 1.4l-3 9.6c-.1.5-.1 1.1 0 1.6.2.6.5 1 1 1.3l.9.7 1.2.3c13 2.9 21 8.3 21 8.3V40.5c-1 4.3-2.9 8.3-5.5 11.7l-.5-1.8zm-36.2-.2c-.1-.5-.5-1-1-1.4s-1-.5-1.6-.5l-10 .2c-.5 0-1.1.2-1.5.5-.4.4-.8.8-.9 1.3l-.6 1.9c-3.9-5.4-6.3-12-6.2-19.2v-.1l1.6 1.2c.4.3 1 .5 1.5.5.6 0 1.1-.2 1.5-.5l8.3-5.8c.5-.3.8-.8 1-1.4.2-.6.2-1.2 0-1.7L49 15.7c-.2-.5-.5-1-1-1.3s-1-.5-1.5-.5h-1.4c-.3.1-.5.3-.8.4-8 4.3-14.6 7.7-23.6 7.7C6.7 22 0 16 0 16c8.5 41.5 36.7 45.7 55.9 46h6.9c.1-.1.2-.3.3-.5.2-.5.2-1.1 0-1.6l-3-9.7z"/></g></svg>